<?xml version="1.0" encoding="iso-8859-1"?>
<!-- Generator: Adobe Illustrator 19.0.0, SVG Export Plug-In . SVG Version: 6.00 Build 0)  -->
<svg version="1.1" id="Capa_1" xmlns="http://www.w3.org/2000/svg" xmlns:xlink="http://www.w3.org/1999/xlink" x="0px" y="0px"
	 viewBox="0 0 490 490" style="enable-background:new 0 0 490 490;" xml:space="preserve">
<g>
	<polygon points="204.2,345.3 204.2,490 285.8,462 285.8,345.3 	"/>
	<g>
		<polygon points="285.8,325.5 204.2,325.5 52.1,161 437.9,161 		"/>
		<g>
			<path d="M177.4,0c-9.4,0-17,12.3-17,27.5S168,55,177.4,55s17-12.3,17-27.5S186.8,0,177.4,0z M177.4,45.7c-4.3,0-7.7-8.2-7.7-18.2
				c0-10.1,3.5-18.2,7.7-18.2s7.7,8.2,7.7,18.2C185.2,37.5,181.7,45.7,177.4,45.7z"/>
			<path d="M241.1,0c-9.4,0-17,12.3-17,27.5s7.6,27.5,17,27.5s17-12.3,17-27.5S250.5,0,241.1,0z M241.1,45.7
				c-4.3,0-7.7-8.2-7.7-18.2c0-10.1,3.5-18.2,7.7-18.2c4.3,0,7.7,8.2,7.7,18.2C248.8,37.5,245.4,45.7,241.1,45.7z"/>
			<path d="M367.1,0c-9.4,0-17,12.3-17,27.5s7.6,27.5,17,27.5s17-12.3,17-27.5S376.5,0,367.1,0z M367.1,45.7
				c-4.3,0-7.7-8.2-7.7-18.2c0-10.1,3.5-18.2,7.7-18.2s7.7,8.2,7.7,18.2C374.8,37.5,371.4,45.7,367.1,45.7z"/>
			<g>
				<path d="M118.9,54.3c-2.2,0-4-1.8-4-4V8.6h-5.1c-2.2,0-4-1.8-4-4s1.8-4,4-4h9c2.2,0,4,1.8,4,4v45.7
					C122.9,52.5,121.1,54.3,118.9,54.3z"/>
			</g>
			<g>
				<path d="M308.2,54.3c-2.2,0-4-1.8-4-4V8.6h-5.1c-2.2,0-4-1.8-4-4s1.8-4,4-4h9c2.2,0,4,1.8,4,4v45.7
					C312.2,52.5,310.4,54.3,308.2,54.3z"/>
			</g>
		</g>
		<g>
			<path d="M130.3,81.9c-9.4,0-17,12.3-17,27.5s7.6,27.5,17,27.5s17-12.3,17-27.5C147.3,94.1,139.7,81.9,130.3,81.9z M130.3,127.5
				c-4.3,0-7.7-8.2-7.7-18.2c0-10.1,3.5-18.2,7.7-18.2s7.7,8.2,7.7,18.2C138,119.4,134.6,127.5,130.3,127.5z"/>
			<path d="M193.9,81.9c-9.4,0-17,12.3-17,27.5s7.6,27.5,17,27.5s17-12.3,17-27.5C210.9,94.1,203.3,81.9,193.9,81.9z M193.9,127.5
				c-4.3,0-7.7-8.2-7.7-18.2c0-10.1,3.5-18.2,7.7-18.2s7.7,8.2,7.7,18.2C201.7,119.4,198.2,127.5,193.9,127.5z"/>
			<path d="M319.9,81.9c-9.4,0-17,12.3-17,27.5s7.6,27.5,17,27.5s17-12.3,17-27.5C336.9,94.1,329.3,81.9,319.9,81.9z M319.9,127.5
				c-4.3,0-7.7-8.2-7.7-18.2c0-10.1,3.5-18.2,7.7-18.2s7.7,8.2,7.7,18.2C327.7,119.4,324.2,127.5,319.9,127.5z"/>
			<g>
				<path d="M372.7,136.1c-2.2,0-4-1.8-4-4V90.4h-5.1c-2.2,0-4-1.8-4-4s1.8-4,4-4h9c2.2,0,4,1.8,4,4v45.7
					C376.7,134.3,374.9,136.1,372.7,136.1z"/>
			</g>
			<g>
				<path d="M261.1,136.1c-2.2,0-4-1.8-4-4V90.4H252c-2.2,0-4-1.8-4-4s1.8-4,4-4h9c2.2,0,4,1.8,4,4v45.7
					C265,134.3,263.3,136.1,261.1,136.1z"/>
			</g>
		</g>
	</g>
</g>
<g>
</g>
<g>
</g>
<g>
</g>
<g>
</g>
<g>
</g>
<g>
</g>
<g>
</g>
<g>
</g>
<g>
</g>
<g>
</g>
<g>
</g>
<g>
</g>
<g>
</g>
<g>
</g>
<g>
</g>
</svg>
